<svg xmlns="http://www.w3.org/2000/svg" xmlns:xlink="http://www.w3.org/1999/xlink" width="960" zoomAndPan="magnify" viewBox="0 0 720 720.749996" height="961" preserveAspectRatio="xMidYMid meet" version="1.0"><defs><clipPath id="4dd511133d"><path d="M 41 0.375 L 680 0.375 L 680 720.5 L 41 720.5 Z M 41 0.375 " clip-rule="nonzero"/></clipPath></defs><path fill="#213147" d="M 65.257812 219.40625 L 65.257812 501.84375 C 65.257812 520 74.769531 536.425781 90.621094 545.648438 L 335.300781 686.867188 C 350.863281 695.800781 370.171875 695.800781 385.738281 686.867188 L 630.417969 545.648438 C 645.980469 536.714844 655.78125 520 655.78125 501.84375 L 655.78125 219.40625 C 655.78125 201.25 646.269531 184.824219 630.417969 175.601562 L 385.738281 34.382812 C 370.171875 25.449219 350.863281 25.449219 335.300781 34.382812 L 90.621094 175.601562 C 75.058594 184.535156 65.546875 201.25 65.546875 219.40625 Z M 65.257812 219.40625 " fill-opacity="1" fill-rule="nonzero"/><path fill="#12aaff" d="M 413.691406 415.382812 L 378.820312 511.066406 C 377.957031 513.660156 377.957031 516.542969 378.820312 519.421875 L 438.765625 683.984375 L 508.222656 643.925781 L 424.933594 415.382812 C 422.914062 410.195312 415.710938 410.195312 413.691406 415.382812 Z M 413.691406 415.382812 " fill-opacity="1" fill-rule="nonzero"/><path fill="#12aaff" d="M 483.722656 254.566406 C 481.707031 249.378906 474.503906 249.378906 472.484375 254.566406 L 437.613281 350.25 C 436.746094 352.84375 436.746094 355.726562 437.613281 358.609375 L 535.890625 628.074219 L 605.34375 588.015625 L 483.722656 254.855469 Z M 483.722656 254.566406 " fill-opacity="1" fill-rule="nonzero"/><g clip-path="url(#4dd511133d)"><path fill="#9dcced" d="M 360.375 45.046875 C 362.105469 45.046875 363.832031 45.621094 365.273438 46.488281 L 629.84375 199.234375 C 633.011719 200.960938 634.742188 204.421875 634.742188 207.878906 L 634.742188 513.371094 C 634.742188 516.828125 632.722656 520.289062 629.84375 522.015625 L 365.273438 674.761719 C 363.832031 675.628906 362.105469 676.203125 360.375 676.203125 C 358.644531 676.203125 356.917969 675.628906 355.476562 674.761719 L 90.90625 522.015625 C 87.738281 520.289062 86.007812 516.828125 86.007812 513.371094 L 86.007812 207.589844 C 86.007812 204.132812 88.027344 200.675781 90.90625 198.945312 L 355.476562 46.199219 C 356.917969 45.335938 358.644531 44.757812 360.375 44.757812 Z M 360.375 0.375 C 350.863281 0.375 341.640625 2.679688 332.996094 7.578125 L 68.429688 160.324219 C 51.425781 170.125 41.050781 187.992188 41.050781 207.589844 L 41.050781 513.082031 C 41.050781 532.679688 51.425781 550.546875 68.429688 560.347656 L 332.996094 713.09375 C 341.355469 717.992188 350.863281 720.296875 360.375 720.296875 C 369.886719 720.296875 379.109375 717.992188 387.753906 713.09375 L 652.320312 560.347656 C 669.324219 550.546875 679.699219 532.679688 679.699219 513.082031 L 679.699219 207.589844 C 679.699219 187.992188 669.324219 170.125 652.320312 160.324219 L 387.464844 7.578125 C 379.109375 2.679688 369.597656 0.375 360.085938 0.375 Z M 360.375 0.375 " fill-opacity="1" fill-rule="nonzero"/></g><path fill="#213147" d="M 185.148438 628.363281 L 209.644531 561.5 L 258.640625 602.136719 L 212.816406 644.214844 Z M 185.148438 628.363281 " fill-opacity="1" fill-rule="nonzero"/><path fill="#ffffff" d="M 337.894531 185.976562 L 270.746094 185.976562 C 265.84375 185.976562 261.234375 189.144531 259.503906 193.757812 L 115.691406 588.015625 L 185.148438 628.074219 L 343.660156 193.757812 C 345.101562 189.722656 342.21875 185.6875 338.183594 185.6875 Z M 337.894531 185.976562 " fill-opacity="1" fill-rule="nonzero"/><path fill="#ffffff" d="M 455.480469 185.976562 L 388.332031 185.976562 C 383.429688 185.976562 378.820312 189.144531 377.089844 193.757812 L 212.816406 643.925781 L 282.273438 683.984375 L 460.957031 193.757812 C 462.398438 189.722656 459.515625 185.6875 455.480469 185.6875 Z M 455.480469 185.976562 " fill-opacity="1" fill-rule="nonzero"/></svg>