<svg xmlns="http://www.w3.org/2000/svg" xmlns:xlink="http://www.w3.org/1999/xlink" width="960" zoomAndPan="magnify" viewBox="0 0 720 720.749996" height="961" preserveAspectRatio="xMidYMid meet" version="1.0"><defs><clipPath id="897b922d16"><path d="M 359 0.375 L 422 0.375 L 422 248 L 359 248 Z M 359 0.375 " clip-rule="nonzero"/></clipPath><clipPath id="0cc8d07a15"><path d="M 0.125 298 L 248 298 L 248 361 L 0.125 361 Z M 0.125 298 " clip-rule="nonzero"/></clipPath><clipPath id="a8a0cd78b3"><path d="M 298 473 L 361 473 L 361 720.125 L 298 720.125 Z M 298 473 " clip-rule="nonzero"/></clipPath><clipPath id="68a8236077"><path d="M 472 360 L 719.875 360 L 719.875 422 L 472 422 Z M 472 360 " clip-rule="nonzero"/></clipPath></defs><path fill="#000000" d="M 148.394531 252.863281 L 39.277344 197.296875 C 30.640625 213.996094 23.445312 231.558594 17.6875 249.695312 L 134.285156 287.410156 C 138.027344 275.605469 142.921875 264.089844 148.394531 253.152344 Z M 148.394531 252.863281 " fill-opacity="1" fill-rule="nonzero"/><path fill="#000000" d="M 241.097656 154.6875 L 301.554688 258.910156 C 310.480469 253.726562 319.695312 249.984375 329.769531 247.105469 L 298.390625 130.792969 C 306.449219 128.777344 314.511719 126.761719 322.574219 125.613281 L 303.285156 4.695312 C 284.570312 7.574219 266.144531 12.179688 248.292969 17.9375 L 285.722656 132.519531 C 273.917969 136.265625 262.113281 141.15625 251.171875 146.917969 L 196.183594 39.53125 C 179.488281 48.167969 163.363281 57.953125 148.105469 69.183594 L 220.367188 168.21875 C 226.988281 163.328125 233.898438 159.007812 241.097656 154.6875 Z M 241.097656 154.6875 " fill-opacity="1" fill-rule="nonzero"/><path fill="#000000" d="M 565.273438 241.058594 L 461.054688 301.519531 C 466.234375 310.441406 469.976562 319.65625 472.855469 329.734375 L 589.167969 298.351562 C 591.183594 306.414062 593.199219 314.472656 594.351562 322.535156 L 715.269531 303.246094 C 712.390625 284.53125 707.785156 266.105469 702.023438 248.257812 L 587.441406 285.683594 C 583.410156 273.878906 578.804688 262.363281 573.046875 251.136719 L 680.144531 196.148438 C 671.507812 179.449219 661.71875 163.328125 650.492188 148.066406 L 551.453125 220.332031 C 556.347656 226.953125 560.667969 233.863281 564.984375 241.058594 Z M 565.273438 241.058594 " fill-opacity="1" fill-rule="nonzero"/><path fill="#000000" d="M 522.953125 39.242188 C 506.253906 30.605469 488.691406 23.40625 470.554688 17.648438 L 432.839844 134.25 C 444.644531 137.992188 456.160156 142.886719 467.097656 148.355469 L 522.664062 39.242188 Z M 522.953125 39.242188 " fill-opacity="1" fill-rule="nonzero"/><path fill="#000000" d="M 479.480469 152.675781 L 418.445312 258.910156 C 427.367188 264.089844 435.429688 270.136719 442.628906 277.621094 L 614.214844 105.457031 C 600.972656 92.214844 586.578125 79.835938 571.320312 68.894531 L 500.496094 166.492188 C 493.875 161.597656 486.675781 156.992188 479.480469 152.960938 Z M 479.480469 152.675781 " fill-opacity="1" fill-rule="nonzero"/><path fill="#000000" d="M 152.425781 240.773438 L 258.371094 302.09375 C 263.554688 293.167969 269.886719 285.109375 277.085938 277.910156 L 105.207031 106.320312 C 91.964844 119.566406 79.585938 133.960938 68.644531 149.21875 L 166.242188 220.042969 C 161.347656 226.664062 156.742188 233.863281 152.710938 241.058594 Z M 152.425781 240.773438 " fill-opacity="1" fill-rule="nonzero"/><g clip-path="url(#897b922d16)"><path fill="#000000" d="M 397.140625 123.597656 L 415.566406 4.40625 C 397.140625 1.527344 378.714844 0.0859375 360 0.0859375 L 359.710938 0.0859375 L 359.710938 243.074219 L 360 243.074219 C 370.363281 243.074219 380.441406 244.515625 390.230469 247.105469 L 421.609375 128.777344 C 413.550781 126.761719 405.488281 125.035156 397.140625 123.597656 Z M 397.140625 123.597656 " fill-opacity="1" fill-rule="nonzero"/></g><g clip-path="url(#0cc8d07a15)"><path fill="#000000" d="M 246.855469 330.019531 L 128.527344 298.640625 C 126.511719 306.699219 124.785156 314.761719 123.347656 323.109375 L 4.441406 304.683594 C 1.5625 323.109375 0.125 341.824219 0.125 360.539062 L 243.113281 360.539062 C 243.113281 350.171875 244.550781 340.097656 247.144531 330.308594 Z M 246.855469 330.019531 " fill-opacity="1" fill-rule="nonzero"/></g><path fill="#000000" d="M 571.605469 467.636719 L 680.722656 523.203125 C 689.359375 506.503906 696.554688 488.941406 702.3125 470.804688 L 585.714844 433.089844 C 581.972656 444.894531 577.078125 456.410156 571.605469 467.347656 Z M 571.605469 467.636719 " fill-opacity="1" fill-rule="nonzero"/><path fill="#000000" d="M 478.902344 565.523438 L 418.445312 461.304688 C 409.519531 466.484375 400.304688 470.226562 390.230469 473.105469 L 421.609375 589.417969 C 413.550781 591.433594 405.488281 593.449219 397.425781 594.601562 L 416.714844 715.519531 C 435.429688 712.640625 453.855469 708.035156 471.707031 702.277344 L 434.277344 587.691406 C 446.082031 583.949219 457.886719 579.054688 468.828125 573.296875 L 523.816406 680.683594 C 540.511719 672.046875 556.636719 662.257812 571.894531 651.027344 L 499.632812 551.992188 C 493.011719 556.886719 486.101562 561.203125 478.902344 565.523438 Z M 478.902344 565.523438 " fill-opacity="1" fill-rule="nonzero"/><path fill="#000000" d="M 154.726562 479.441406 L 258.945312 418.980469 C 253.765625 410.058594 250.023438 400.84375 247.144531 390.765625 L 130.832031 422.148438 C 128.816406 414.085938 126.800781 406.027344 125.648438 397.964844 L 4.730469 417.253906 C 7.609375 435.96875 12.214844 454.394531 17.976562 472.242188 L 132.558594 434.816406 C 136.589844 446.621094 141.195312 458.425781 146.953125 469.363281 L 39.855469 524.351562 C 48.492188 541.050781 58.28125 557.171875 69.507812 572.433594 L 168.546875 500.167969 C 163.652344 493.546875 159.046875 486.636719 155.015625 479.441406 Z M 154.726562 479.441406 " fill-opacity="1" fill-rule="nonzero"/><path fill="#000000" d="M 197.046875 681.257812 C 213.746094 689.894531 231.308594 697.09375 249.445312 702.851562 L 287.160156 586.25 C 275.355469 582.507812 263.839844 577.613281 252.902344 572.144531 L 197.335938 681.257812 Z M 197.046875 681.257812 " fill-opacity="1" fill-rule="nonzero"/><path fill="#000000" d="M 240.519531 567.824219 L 301.554688 461.589844 C 292.632812 456.410156 284.570312 450.363281 277.371094 442.878906 L 105.785156 615.042969 C 119.027344 628.285156 133.421875 640.664062 148.679688 651.605469 L 219.503906 554.007812 C 226.125 558.902344 233.324219 563.507812 240.519531 567.539062 Z M 240.519531 567.824219 " fill-opacity="1" fill-rule="nonzero"/><path fill="#000000" d="M 567.574219 479.730469 L 461.628906 418.40625 C 456.445312 427.332031 450.113281 435.390625 442.914062 442.589844 L 614.792969 614.179688 C 628.035156 600.933594 640.414062 586.539062 651.355469 571.28125 L 553.757812 500.457031 C 558.652344 493.835938 563.257812 486.636719 567.289062 479.441406 Z M 567.574219 479.730469 " fill-opacity="1" fill-rule="nonzero"/><g clip-path="url(#a8a0cd78b3)"><path fill="#000000" d="M 329.769531 473.394531 L 298.390625 591.722656 C 306.449219 593.738281 314.511719 595.464844 322.859375 596.902344 L 304.433594 716.09375 C 322.859375 718.972656 341.285156 720.414062 360 720.414062 L 360.289062 720.414062 L 360.289062 477.425781 L 360 477.425781 C 349.636719 477.425781 339.558594 475.984375 329.769531 473.394531 Z M 329.769531 473.394531 " fill-opacity="1" fill-rule="nonzero"/></g><g clip-path="url(#68a8236077)"><path fill="#000000" d="M 476.886719 360.25 C 476.886719 370.613281 475.449219 380.691406 472.855469 390.480469 L 591.183594 421.859375 C 593.199219 413.800781 594.925781 405.738281 596.367188 397.390625 L 715.558594 416.101562 C 718.4375 397.675781 719.875 378.964844 719.875 360.25 Z M 476.886719 360.25 " fill-opacity="1" fill-rule="nonzero"/></g></svg>