<svg xmlns="http://www.w3.org/2000/svg" xmlns:xlink="http://www.w3.org/1999/xlink" width="960" zoomAndPan="magnify" viewBox="0 0 720 720.749996" height="961" preserveAspectRatio="xMidYMid meet" version="1.0"><defs><clipPath id="41a261cb28"><path d="M 0.125 0.375 L 719.875 0.375 L 719.875 720.125 L 0.125 720.125 Z M 0.125 0.375 " clip-rule="nonzero"/></clipPath></defs><g clip-path="url(#41a261cb28)"><path fill="#ff0420" d="M 719.875 360.25 C 719.875 161.597656 558.652344 0.375 360 0.375 C 161.347656 0.375 0.125 161.597656 0.125 360.25 C 0.125 558.902344 161.347656 720.125 360 720.125 C 558.652344 720.125 719.875 558.902344 719.875 360.25 Z M 719.875 360.25 " fill-opacity="1" fill-rule="nonzero"/></g><path fill="#ffffff" d="M 255.203125 455.832031 C 233.613281 455.832031 216.050781 450.652344 202.519531 440.574219 C 188.988281 430.210938 182.078125 415.527344 182.078125 396.8125 C 182.078125 392.78125 182.652344 387.886719 183.515625 382.128906 C 185.820312 369.175781 189.273438 353.628906 193.59375 335.203125 C 205.972656 285.683594 237.640625 260.925781 288.601562 260.925781 C 302.421875 260.925781 315.085938 263.226562 326.027344 268.121094 C 336.96875 272.726562 345.605469 279.636719 351.9375 288.851562 C 358.273438 298.0625 361.441406 308.714844 361.441406 321.382812 C 361.441406 325.125 360.863281 330.019531 360 335.777344 C 357.121094 351.902344 353.953125 367.449219 350.210938 382.707031 C 343.878906 407.464844 332.9375 425.890625 317.390625 438.269531 C 301.84375 450.363281 281.117188 456.410156 255.203125 456.410156 Z M 259.234375 416.964844 C 269.3125 416.964844 277.949219 413.800781 284.859375 408.042969 C 292.054688 401.996094 297.238281 393.070312 300.40625 380.691406 C 304.722656 363.703125 307.890625 349.023438 309.90625 336.355469 C 310.769531 332.613281 311.058594 328.582031 311.058594 324.550781 C 311.058594 308.140625 302.421875 299.792969 285.433594 299.792969 C 275.355469 299.792969 266.71875 302.957031 259.523438 308.714844 C 252.324219 314.761719 247.429688 323.6875 244.265625 336.066406 C 240.808594 348.160156 237.640625 362.839844 234.476562 380.402344 C 233.613281 384.144531 233.324219 387.886719 233.324219 391.917969 C 233.035156 408.617188 241.960938 416.964844 259.234375 416.964844 Z M 259.234375 416.964844 " fill-opacity="1" fill-rule="nonzero"/><path fill="#ffffff" d="M 373.53125 453.242188 C 371.515625 453.242188 370.078125 452.664062 368.925781 451.226562 C 368.0625 449.785156 367.773438 448.058594 368.0625 446.332031 L 405.488281 270.714844 C 405.777344 268.699219 406.925781 266.96875 408.65625 265.820312 C 410.382812 264.378906 412.109375 263.804688 413.835938 263.804688 L 485.8125 263.804688 C 505.964844 263.804688 521.800781 268.121094 533.890625 276.183594 C 546.269531 284.53125 552.316406 296.625 552.316406 312.171875 C 552.316406 316.777344 551.742188 321.382812 550.589844 326.277344 C 545.984375 347.007812 537.058594 362.265625 523.238281 372.34375 C 509.707031 382.417969 490.996094 387.3125 467.386719 387.3125 L 430.824219 387.3125 L 418.445312 446.621094 C 417.867188 448.636719 417.003906 450.363281 415.277344 451.515625 C 413.550781 452.953125 411.820312 453.53125 410.09375 453.53125 L 373.242188 453.53125 Z M 469.113281 349.886719 C 476.886719 349.886719 483.222656 347.871094 488.980469 343.550781 C 494.738281 339.234375 498.480469 333.476562 500.496094 325.703125 C 501.070312 322.535156 501.359375 319.945312 501.359375 317.640625 C 501.359375 312.457031 499.632812 308.429688 496.753906 305.550781 C 493.585938 302.671875 488.402344 301.230469 480.917969 301.230469 L 448.386719 301.230469 L 438.019531 349.597656 L 469.113281 349.597656 Z M 469.113281 349.886719 " fill-opacity="1" fill-rule="nonzero"/></svg>
